<svg width="26" height="26" viewBox="0 0 26 26" fill="none" xmlns="http://www.w3.org/2000/svg">
<path d="M13.0001 2.16658C18.9817 2.16658 23.8334 7.01658 23.8334 12.9999C23.8334 18.9832 18.9817 23.8332 13.0001 23.8332C7.01675 23.8332 2.16675 18.9832 2.16675 12.9999C2.16675 7.01658 7.01675 2.16658 13.0001 2.16658ZM13.0001 4.33325C8.21342 4.33325 4.33341 8.21325 4.33341 12.9999C4.33341 17.7866 8.21342 21.6666 13.0001 21.6666C17.7854 21.6666 21.6667 17.7866 21.6667 12.9999C21.6667 8.21325 17.7854 4.33325 13.0001 4.33325ZM12.2838 7.63325C12.8821 7.63325 13.3672 8.11827 13.3672 8.71658V12.87L17.4412 14.2305C18.0079 14.4223 18.3118 15.0372 18.12 15.604C17.9281 16.1707 17.3132 16.4746 16.7465 16.2827L11.9365 14.6544C11.4965 14.5055 11.2005 14.0927 11.2005 13.6282V8.71658C11.2005 8.11827 11.6855 7.63325 12.2838 7.63325Z" fill="currentColor"/>
</svg>
