<svg width="14" height="14" viewBox="0 0 14 14" fill="none" xmlns="http://www.w3.org/2000/svg">
<path fill-rule="evenodd" clip-rule="evenodd" d="M2.16263 0.934091C2.76707 0.610829 3.36209 0.5 4.66631 0.5H9.33369C10.6379 0.5 11.2329 0.610829 11.8374 0.934091C12.3654 1.21648 12.7835 1.63461 13.0659 2.16263C13.3892 2.76707 13.5 3.36209 13.5 4.66631V9.33369C13.5 10.6379 13.3892 11.2329 13.0659 11.8374C12.7835 12.3654 12.3654 12.7835 11.8374 13.0659C11.2329 13.3892 10.6379 13.5 9.33369 13.5H4.66631C3.36209 13.5 2.76707 13.3892 2.16263 13.0659C1.63461 12.7835 1.21648 12.3654 0.934091 11.8374C0.610829 11.2329 0.5 10.6379 0.5 9.33369V4.66631C0.5 3.36209 0.610829 2.76707 0.934091 2.16263C1.21648 1.63461 1.63461 1.21648 2.16263 0.934091ZM5.75 12.2451V10.627C5.75 10.2818 5.47018 10.002 5.125 10.002C4.77982 10.002 4.5 10.2818 4.5 10.627V12.2444C3.39523 12.2348 3.06696 12.132 2.75212 11.9636C2.44194 11.7978 2.20224 11.5581 2.03636 11.2479C1.85981 10.9178 1.75 10.5729 1.75 9.33369V4.66631C1.75 3.4271 1.85981 3.08223 2.03636 2.75212C2.20224 2.44194 2.44194 2.20224 2.75212 2.03636C3.08223 1.85981 3.4271 1.75 4.66631 1.75H9.33369C10.5729 1.75 10.9178 1.85981 11.2479 2.03636C11.5581 2.20224 11.7978 2.44194 11.9636 2.75212C12.1402 3.08223 12.25 3.4271 12.25 4.66631V9.33369C12.25 10.5729 12.1402 10.9178 11.9636 11.2479C11.7978 11.5581 11.5581 11.7978 11.2479 11.9636C10.9582 12.1186 10.4071 12.2173 9.5 12.2403V10.6221C9.5 10.2769 9.22018 9.9971 8.875 9.9971C8.52982 9.9971 8.25 10.2769 8.25 10.6221V12.2451H5.75ZM3 4.625C3 4.27982 3.27982 4 3.625 4H10.3715C10.7167 4 10.9965 4.27982 10.9965 4.625C10.9965 4.97018 10.7167 5.25 10.3715 5.25H3.625C3.27982 5.25 3 4.97018 3 4.625ZM3 7.625C3 7.27982 3.27982 7 3.625 7H10.3715C10.7167 7 10.9965 7.27982 10.9965 7.625C10.9965 7.97018 10.7167 8.25 10.3715 8.25H3.625C3.27982 8.25 3 7.97018 3 7.625Z" fill="currentColor"/>
</svg>
