<svg width="26" height="26" viewBox="0 0 26 26" fill="none" xmlns="http://www.w3.org/2000/svg">
<path fill-rule="evenodd" clip-rule="evenodd" d="M13 9.5625C11.8609 9.5625 10.9375 10.4859 10.9375 11.625C10.9375 12.7641 11.8609 13.6875 13 13.6875C14.1391 13.6875 15.0625 12.7641 15.0625 11.625C15.0625 10.4859 14.1391 9.5625 13 9.5625ZM8.875 11.625C8.875 9.34683 10.7218 7.5 13 7.5C15.2782 7.5 17.125 9.34683 17.125 11.625C17.125 13.9032 15.2782 15.75 13 15.75C10.7218 15.75 8.875 13.9032 8.875 11.625Z" fill="currentColor"/>
<path fill-rule="evenodd" clip-rule="evenodd" d="M9.05068 2C6.83656 2 5.83299 2.18948 4.81367 2.73461C3.92004 3.21254 3.21254 3.92004 2.73461 4.81367C2.18948 5.83299 2 6.83656 2 9.05068V16.9493C2 19.1634 2.18948 20.167 2.73461 21.1863C3.21254 22.08 3.92004 22.7875 4.81367 23.2654C5.83299 23.8105 6.83656 24 9.05068 24H16.9493C19.1634 24 20.167 23.8105 21.1863 23.2654C22.08 22.7875 22.7875 22.08 23.2654 21.1863C23.8105 20.167 24 19.1634 24 16.9493V9.05068C24 6.83656 23.8105 5.83299 23.2654 4.81367C22.7875 3.92004 22.08 3.21254 21.1863 2.73461C20.167 2.18948 19.1634 2 16.9493 2H9.05068ZM16.9493 21.9375C18.0209 21.9375 18.7004 21.889 19.1841 21.8012C17.6198 20.1883 15.4301 19.1875 13.0065 19.1875C10.5818 19.1875 8.39138 20.1891 6.82691 21.8032C7.30991 21.8897 7.98715 21.9375 9.05068 21.9375H16.9493ZM5.78635 4.55335C6.35386 4.24984 6.94555 4.0625 9.05068 4.0625H16.9493C19.0544 4.0625 19.6461 4.24984 20.2137 4.55335C20.7479 4.83905 21.1609 5.25214 21.4466 5.78635C21.7502 6.35386 21.9375 6.94555 21.9375 9.05068V16.9493C21.9375 19.0544 21.7502 19.6461 21.4466 20.2137C21.3345 20.4234 21.2027 20.6144 21.0517 20.7864C19.0977 18.5443 16.2179 17.125 13.0065 17.125C9.79152 17.125 6.90895 18.5474 4.95483 20.7938C4.80107 20.6199 4.66712 20.4264 4.55335 20.2137C4.24984 19.6461 4.0625 19.0544 4.0625 16.9493V9.05068C4.0625 6.94555 4.24984 6.35386 4.55335 5.78635C4.83905 5.25214 5.25214 4.83905 5.78635 4.55335ZM8.875 11.625C8.875 9.34683 10.7218 7.5 13 7.5C15.2782 7.5 17.125 9.34683 17.125 11.625C17.125 13.9032 15.2782 15.75 13 15.75C10.7218 15.75 8.875 13.9032 8.875 11.625ZM13 9.5625C11.8609 9.5625 10.9375 10.4859 10.9375 11.625C10.9375 12.7641 11.8609 13.6875 13 13.6875C14.1391 13.6875 15.0625 12.7641 15.0625 11.625C15.0625 10.4859 14.1391 9.5625 13 9.5625Z" fill="currentColor"/>
</svg>
