<svg width="16" height="16" viewBox="0 0 16 16" fill="none" xmlns="http://www.w3.org/2000/svg">
<path fill-rule="evenodd" clip-rule="evenodd" d="M11.75 5C11.75 7.07107 10.0711 8.75 7.99998 8.75C5.92892 8.75 4.24998 7.07107 4.24998 5C4.24998 2.92893 5.92892 1.25 7.99998 1.25C10.0711 1.25 11.75 2.92893 11.75 5ZM10.25 5C10.25 6.24264 9.24263 7.25 7.99998 7.25C6.75734 7.25 5.74998 6.24264 5.74998 5C5.74998 3.75736 6.75734 2.75 7.99998 2.75C9.24263 2.75 10.25 3.75736 10.25 5Z" fill="currentColor"/>
<path fill-rule="evenodd" clip-rule="evenodd" d="M8 9.5C6.03684 9.5 4.5154 9.75103 3.45957 10.3045C2.9203 10.5872 2.48387 10.9586 2.18486 11.4308C1.88409 11.9059 1.75 12.4396 1.75 13V13.25C1.74999 14.2165 2.5335 15 3.5 15H12.5C13.4668 15 14.25 14.2158 14.25 13.2496V13C14.25 12.4396 14.1159 11.9059 13.8151 11.4308C13.5161 10.9586 13.0797 10.5872 12.5404 10.3045C11.4846 9.75103 9.96315 9.5 8 9.5ZM3.25 13C3.25 12.6854 3.32267 12.4378 3.45221 12.2332C3.58352 12.0258 3.80098 11.8191 4.15596 11.633C4.88864 11.249 6.1172 11 8 11C9.8828 11 11.1114 11.249 11.844 11.633C12.199 11.8191 12.4165 12.0258 12.5478 12.2332C12.6773 12.4378 12.75 12.6854 12.75 13V13.2496C12.75 13.3881 12.6377 13.5 12.5 13.5H3.5C3.36193 13.5 3.25 13.3881 3.25 13.25L3.25 13Z" fill="currentColor"/>
</svg>
